HIERARCHY
ROOT Hips
{
	OFFSET 0.000000 0.000000 0.000000
	CHANNELS 6 Xposition Yposition Zposition Xrotation Yrotation Zrotation
	JOINT LeftUpLeg_virtual
	{
		OFFSET 0.000000 0.000000 0.000000
		CHANNELS 3 Xrotation Yrotation Zrotation
		JOINT LeftUpLeg
		{
			OFFSET 15.427100 -6.655098 0.678600
			CHANNELS 3 Xrotation Yrotation Zrotation
			JOINT LeftLeg
			{
				OFFSET 4.081073 -39.591068 13.024000
				CHANNELS 3 Xrotation Yrotation Zrotation
				JOINT LeftFoot
				{
					OFFSET -4.081074 -37.707932 -15.979700
					CHANNELS 3 Xrotation Yrotation Zrotation
					JOINT LeftToeBase
					{
						OFFSET 5.346399 -15.068900 20.645000
						CHANNELS 3 Xrotation Yrotation Zrotation
						JOINT LeftToe_End
						{
							OFFSET 2.754700 0.931300 11.300900
							CHANNELS 3 Xrotation Yrotation Zrotation
							End Site
							{
								OFFSET 0 0 0
							}
						}
					}
				}
			}
		}
	}
	JOINT RightUpLeg_virtual
	{
		OFFSET 0.000000 0.000000 0.000000
		CHANNELS 3 Xrotation Yrotation Zrotation
		JOINT RightUpLeg
		{
			OFFSET -15.569500 -6.655098 0.678600
			CHANNELS 3 Xrotation Yrotation Zrotation
			JOINT RightLeg
			{
				OFFSET -4.081825 -39.591045 13.023800
				CHANNELS 3 Xrotation Yrotation Zrotation
				JOINT RightFoot
				{
					OFFSET 4.081824 -37.707954 -15.979600
					CHANNELS 3 Xrotation Yrotation Zrotation
					JOINT RightToeBase
					{
						OFFSET -5.346400 -15.068900 20.645000
						CHANNELS 3 Xrotation Yrotation Zrotation
						JOINT RightToe_End
						{
							OFFSET -2.754700 0.931300 11.300900
							CHANNELS 3 Xrotation Yrotation Zrotation
							End Site
							{
								OFFSET 0 0 0
							}
						}
					}
				}
			}
		}
	}
	JOINT Spine_virtual
	{
		OFFSET 0.000000 0.000000 0.000000
		CHANNELS 3 Xrotation Yrotation Zrotation
		JOINT Spine
		{
			OFFSET -0.279200 12.230698 -2.892100
			CHANNELS 3 Xrotation Yrotation Zrotation
			JOINT Spine1
			{
				OFFSET -0.232667 10.192268 -1.242267
				CHANNELS 3 Xrotation Yrotation Zrotation
				JOINT Spine1_split
				{
					OFFSET -0.232667 10.192268 -1.242267
					CHANNELS 3 Xrotation Yrotation Zrotation
					JOINT Spine2
					{
						OFFSET -0.232667 10.192268 -1.242267
						CHANNELS 3 Xrotation Yrotation Zrotation
						JOINT Neck_virtual
						{
							OFFSET 0.000000 0.000000 0.000000
							CHANNELS 3 Xrotation Yrotation Zrotation
							JOINT Neck
							{
								OFFSET -0.418800 17.814194 8.416900
								CHANNELS 3 Xrotation Yrotation Zrotation
								JOINT Head
								{
									OFFSET 0.000000 7.031097 3.806800
									CHANNELS 3 Xrotation Yrotation Zrotation
									JOINT HeadTop_End
									{
										OFFSET 0.000000 24.646606 12.978600
										CHANNELS 3 Xrotation Yrotation Zrotation
										End Site
										{
											OFFSET 0 0 0
										}
									}
								}
							}
						}
						JOINT LeftShoulder_virtual
						{
							OFFSET 0.000000 0.000000 0.000000
							CHANNELS 3 Xrotation Yrotation Zrotation
							JOINT LeftShoulder
							{
								OFFSET 8.476499 7.247704 -3.868750
								CHANNELS 3 Xrotation Yrotation Zrotation
								JOINT LeftShoulder_split
								{
									OFFSET 8.476499 7.247704 -3.868750
									CHANNELS 3 Xrotation Yrotation Zrotation
									JOINT LeftArm
									{
										OFFSET 9.308998 -2.777710 0.208600
										CHANNELS 3 Xrotation Yrotation Zrotation
										JOINT LeftForeArm
										{
											OFFSET 29.972298 0.000000 0.000000
											CHANNELS 3 Xrotation Yrotation Zrotation
											JOINT LeftHand
											{
												OFFSET 26.026505 0.000000 0.000000
												CHANNELS 3 Xrotation Yrotation Zrotation
												End Site
												{
													OFFSET 0 0 0
												}
											}
										}
									}
								}
							}
						}
						JOINT RightShoulder_virtual
						{
							OFFSET 0.000000 0.000000 0.000000
							CHANNELS 3 Xrotation Yrotation Zrotation
							JOINT RightShoulder
							{
								OFFSET -7.570500 7.247704 -3.868750
								CHANNELS 3 Xrotation Yrotation Zrotation
								JOINT RightShoulder_split
								{
									OFFSET -7.570500 7.247704 -3.868750
									CHANNELS 3 Xrotation Yrotation Zrotation
									JOINT RightArm
									{
										OFFSET -9.308998 -2.777710 0.208500
										CHANNELS 3 Xrotation Yrotation Zrotation
										JOINT RightForeArm
										{
											OFFSET -29.972300 0.000000 0.000000
											CHANNELS 3 Xrotation Yrotation Zrotation
											JOINT RightHand
											{
												OFFSET -26.026505 0.000000 0.000000
												CHANNELS 3 Xrotation Yrotation Zrotation
												End Site
												{
													OFFSET 0 0 0
												}
											}
										}
									}
								}
							}
						}
					}
				}
			}
		}
	}
}
MOTION
Frames: 10
Frame Time: 0.03333333
1.191120 75.535698 0.493130 0.000000 0.000000 0.000000 7.877068 -12.251667 2.163137 -51.288550 -0.106379 27.773841 43.190828 0.466845 4.506607 6.032924 0.386752 -23.096684 -0.665665 0.483871 -0.436658 0.000000 0.000000 0.000000 7.332028 -11.790040 2.348552 -22.527296 -1.855366 -40.466849 36.104537 4.890216 2.520468 -13.544701 -9.992989 33.225537 0.153724 1.215659 0.658233 0.000000 0.000000 0.000000 8.313602 -10.164512 1.727451 7.934330 2.646000 -2.354182 6.200586 1.629782 -1.206154 0.525016 1.924460 0.371240 0.000000 0.000000 0.000000 6.311693 1.230578 -0.510553 -1.990410 -0.043124 -3.173133 -10.481150 -3.923332 4.624995 0.000000 0.000000 0.000000 5.912831 1.690567 -1.005549 5.352386 -36.227726 3.962590 -2.125337 -3.391759 -1.357739 -77.769996 -33.612870 -28.335253 -0.132077 -23.586860 1.554894 0.000000 0.000000 0.000000 5.352139 1.437310 -0.706645 5.445042 28.623757 -19.511287 2.398822 -0.343944 1.545916 -38.000724 30.623331 12.314215 0.781942 39.878080 -0.454006 0.000000 0.000000 0.000000 
1.302683 75.335236 0.598293 0.000000 0.000000 0.000000 8.177817 -11.806981 1.989748 -52.323596 -0.272073 27.940859 43.890283 0.220649 4.312747 5.674075 0.066954 -23.077642 -0.547554 0.475582 -0.500580 0.000000 0.000000 0.000000 7.556317 -11.392671 2.145029 -22.449795 -2.144327 -40.332021 36.088729 4.790920 2.360888 -13.722396 -10.326137 33.197810 0.195443 1.234048 0.638892 0.000000 0.000000 0.000000 8.724528 -10.075523 1.582391 8.026772 2.417933 -2.438198 6.162222 1.367812 -1.235406 0.607545 2.159116 0.297106 0.000000 0.000000 0.000000 6.181252 0.992239 -0.558031 -2.710910 -0.311898 -2.480427 -10.765410 -4.110008 5.080895 0.000000 0.000000 0.000000 5.779158 1.512964 -1.103427 5.232630 -36.553479 4.169237 -0.690531 -3.687851 -0.807870 -77.065421 -33.703370 -27.060296 -0.212582 -23.226150 1.681143 0.000000 0.000000 0.000000 5.438415 1.337314 -0.789005 5.096373 28.985772 -19.361027 2.707619 -1.028658 1.511063 -40.449791 28.602317 13.651678 0.709382 41.364186 -0.269673 0.000000 0.000000 0.000000 
1.393305 75.086990 0.703636 0.000000 0.000000 0.000000 8.399284 -11.403855 1.779188 -53.253984 -0.372347 28.124771 44.524320 0.040429 4.224744 5.285226 -0.092146 -23.019293 -0.457615 0.471375 -0.594809 0.000000 0.000000 0.000000 7.750052 -10.895338 1.882391 -22.289144 -2.468561 -40.208685 35.986587 4.633261 2.203286 -13.987728 -10.686507 33.036228 0.345028 1.230496 0.682610 0.000000 0.000000 0.000000 9.071361 -9.971857 1.418198 8.122925 2.211850 -2.391279 6.192384 1.190366 -1.223592 0.791160 2.060751 0.233114 0.000000 0.000000 0.000000 6.057804 0.829165 -0.602940 -3.659217 -0.681654 -1.612862 -11.002541 -4.160293 5.452118 0.000000 0.000000 0.000000 5.819132 1.336475 -1.181424 4.988345 -36.535816 4.025512 0.294652 -3.709488 -0.362047 -76.475552 -33.956422 -26.660844 -0.542741 -22.331353 1.506563 0.000000 0.000000 0.000000 5.632506 1.337410 -0.816925 4.564384 28.876636 -18.596303 2.700297 -1.252211 1.209039 -42.441529 27.520294 15.298051 0.681903 41.474691 -0.193466 0.000000 0.000000 0.000000 
1.471859 74.823837 0.790306 0.000000 0.000000 0.000000 8.494069 -11.160825 1.545191 -53.957449 -0.385990 28.337546 45.092352 -0.036203 4.236152 4.871801 -0.077971 -22.933458 -0.500609 0.476680 -0.675885 0.000000 0.000000 0.000000 7.914899 -10.453683 1.609404 -22.191554 -2.771396 -40.148402 35.844833 4.465772 2.054288 -14.214739 -10.954759 32.840577 0.557068 1.208224 0.772257 0.000000 0.000000 0.000000 9.282584 -9.892835 1.264470 8.204172 2.077155 -2.244647 6.275583 1.145289 -1.183472 0.964704 1.972435 0.123337 0.000000 0.000000 0.000000 5.968929 0.787862 -0.646602 -4.731932 -1.103430 -0.863298 -11.135788 -4.097547 5.708282 0.000000 0.000000 0.000000 6.002205 1.210780 -1.223108 4.714396 -36.243518 3.821360 0.709694 -3.379542 -0.238660 -76.292803 -34.735771 -26.949408 -0.972470 -21.300464 1.139115 0.000000 0.000000 0.000000 5.906901 1.421064 -0.798699 4.034495 28.459250 -17.666225 2.372971 -1.110235 0.681911 -43.287051 27.804655 16.613843 0.802394 40.072996 -0.323905 0.000000 0.000000 0.000000 
1.563920 74.596687 0.855328 0.000000 0.000000 0.000000 8.492943 -11.107640 1.322021 -54.380146 -0.306336 28.572131 45.567143 -0.033936 4.308180 4.463511 0.018823 -22.869726 -0.654716 0.489252 -0.706481 0.000000 0.000000 0.000000 7.999983 -10.243392 1.368724 -22.192096 -3.002180 -40.176470 35.636003 4.337530 1.928768 -14.356889 -11.043114 32.737773 0.831126 1.178328 0.870370 0.000000 0.000000 0.000000 9.339142 -9.872732 1.153499 8.245055 2.031568 -2.056500 6.370678 1.239897 -1.151877 1.026912 1.960355 -0.108651 0.000000 0.000000 0.000000 5.924591 0.861262 -0.690662 -5.795841 -1.466623 -0.487324 -11.115646 -3.938806 5.815474 0.000000 0.000000 0.000000 6.239698 1.182643 -1.219131 4.467265 -35.839123 3.717339 0.928972 -2.947624 -0.421885 -76.215786 -35.801195 -27.483578 -1.369087 -20.956292 0.753692 0.000000 0.000000 0.000000 6.168895 1.541578 -0.781955 3.639656 27.855624 -16.928250 1.920470 -0.865192 0.163045 -42.910301 29.049136 17.473398 1.024957 38.123015 -0.619291 0.000000 0.000000 0.000000 
1.680174 74.472717 0.844910 0.000000 0.000000 0.000000 8.418180 -11.251331 1.144330 -54.541530 -0.180926 28.792382 45.885856 0.003302 4.400007 4.117040 0.089818 -22.868518 -0.827328 0.504592 -0.663929 0.000000 0.000000 0.000000 8.033263 -10.274361 1.196961 -22.241664 -3.148300 -40.245281 35.336055 4.254967 1.819891 -14.394103 -10.956085 32.782128 1.083468 1.150191 0.941130 0.000000 0.000000 0.000000 9.296154 -9.902772 1.100115 8.215535 2.057737 -1.892991 6.430034 1.418687 -1.152148 0.736931 2.078522 -0.332197 0.000000 0.000000 0.000000 5.910101 1.025475 -0.749150 -6.686370 -1.667783 -0.576817 -10.869541 -3.737732 5.776503 0.000000 0.000000 0.000000 6.439646 1.249078 -1.198660 4.237176 -35.509259 3.671812 1.038074 -2.644393 -0.584233 -75.881749 -36.592055 -27.703731 -1.524956 -21.705248 0.520609 0.000000 0.000000 0.000000 6.363760 1.644303 -0.787932 3.413593 27.113822 -16.591602 1.244792 -0.807418 -0.336142 -41.514026 30.284827 17.803907 1.348793 36.788604 -1.044332 0.000000 0.000000 0.000000 
1.791616 74.494514 0.823555 0.000000 0.000000 0.000000 8.341244 -11.533217 1.030646 -54.480714 -0.033670 28.982282 46.030755 0.031577 4.467484 3.856118 0.071241 -22.909303 -0.889129 0.517815 -0.560384 0.000000 0.000000 0.000000 8.050933 -10.515155 1.102558 -22.234226 -3.214705 -40.261472 34.968806 4.192768 1.728746 -14.295571 -10.783157 32.957285 1.164448 1.128531 0.967436 0.000000 0.000000 0.000000 9.222589 -9.990624 1.081615 8.098590 2.133813 -1.802812 6.446510 1.616347 -1.196918 0.358830 2.209897 -0.509586 0.000000 0.000000 0.000000 5.896420 1.201083 -0.839030 -7.273451 -1.661048 -1.068165 -10.407994 -3.608610 5.642339 0.000000 0.000000 0.000000 6.558733 1.365806 -1.206529 4.078525 -35.495708 3.696515 1.260492 -2.392008 -0.478560 -75.485127 -37.054575 -27.654698 -1.392018 -22.998324 0.487041 0.000000 0.000000 0.000000 6.490795 1.707661 -0.827872 3.254382 26.303190 -16.628055 0.676416 -0.969401 -0.705863 -39.849284 30.868111 17.979442 1.667242 36.755871 -1.482355 0.000000 0.000000 0.000000 
1.891765 74.647491 0.762474 0.000000 0.000000 0.000000 8.299036 -11.909023 0.984451 -54.227290 0.145955 29.140278 45.957761 0.060659 4.507358 3.666744 -0.036054 -22.969038 -0.795590 0.526600 -0.418289 0.000000 0.000000 0.000000 8.020958 -10.916320 1.062321 -22.122544 -3.162746 -40.148716 34.607305 4.111617 1.650584 -14.095602 -10.624556 33.186902 1.060482 1.109150 0.959124 0.000000 0.000000 0.000000 9.160337 -10.164017 1.067081 7.947363 2.227459 -1.796603 6.451377 1.775118 -1.284339 0.270486 2.251410 -0.644719 0.000000 0.000000 0.000000 5.868856 1.338202 -0.954084 -7.522173 -1.463536 -1.736211 -9.826099 -3.509219 5.395499 0.000000 0.000000 0.000000 6.623237 1.477924 -1.257406 3.967515 -35.971434 3.645521 1.392877 -2.288844 -0.163874 -74.829107 -36.856619 -27.018826 -1.102001 -23.799149 0.634894 0.000000 0.000000 0.000000 6.558583 1.707043 -0.899123 3.127020 25.503643 -16.890622 0.192893 -1.220580 -0.932297 -38.954235 30.652694 18.763790 1.911224 37.528666 -1.832917 0.000000 0.000000 0.000000 
1.930555 74.889732 0.683475 0.000000 0.000000 0.000000 8.284223 -12.406444 1.014048 -53.760846 0.344032 29.304490 45.676344 0.111189 4.515065 3.500734 -0.161454 -23.018870 -0.632834 0.526291 -0.254082 0.000000 0.000000 0.000000 7.984272 -11.350542 1.072974 -21.968930 -2.946772 -39.906309 34.366937 4.015153 1.572876 -13.844133 -10.561369 33.339045 0.892773 1.087455 0.952122 0.000000 0.000000 0.000000 9.132557 -10.467403 1.069935 7.798352 2.334327 -1.857079 6.475848 1.861237 -1.382431 0.389249 1.972846 -0.652058 0.000000 0.000000 0.000000 5.864617 1.419783 -1.079374 -7.466915 -1.197591 -2.262857 -9.343263 -3.343163 4.975700 0.000000 0.000000 0.000000 6.651504 1.558918 -1.344250 3.927692 -36.911312 3.548019 1.195242 -2.209211 0.243361 -74.197663 -36.015635 -25.770794 -0.831149 -23.615550 0.806480 0.000000 0.000000 0.000000 6.601982 1.680137 -0.974678 2.987424 24.743316 -17.282641 -0.288621 -1.435711 -0.941168 -39.445790 30.185017 20.408826 1.961271 38.271927 -1.989513 0.000000 0.000000 0.000000 
1.901092 75.144524 0.555145 0.000000 0.000000 0.000000 8.257764 -13.065486 1.128760 -53.035391 0.603140 29.492931 45.250714 0.200512 4.515564 3.296581 -0.234143 -23.045917 -0.522617 0.513923 -0.077651 0.000000 0.000000 0.000000 7.893638 -11.953899 1.158960 -21.893038 -2.467679 -39.578993 34.332137 3.926945 1.482751 -13.621283 -10.623330 33.334359 0.828661 1.060858 0.979597 0.000000 0.000000 0.000000 9.084153 -11.075112 1.115734 7.693676 2.464333 -1.960985 6.550314 1.892171 -1.472629 0.729184 1.492688 -0.450744 0.000000 0.000000 0.000000 5.929811 1.449084 -1.195500 -7.196942 -0.975143 -2.368724 -9.191612 -2.886686 4.250162 0.000000 0.000000 0.000000 6.678521 1.608808 -1.417707 3.995829 -38.123377 3.563902 0.977974 -1.974042 0.347677 -73.656699 -34.699499 -23.949114 -0.755011 -22.946671 0.855862 0.000000 0.000000 0.000000 6.635195 1.653769 -1.041998 2.857364 24.071260 -17.711456 -0.564766 -1.343934 -0.878177 -41.545336 30.308199 23.014901 1.725918 38.283398 -1.871258 0.000000 0.000000 0.000000 
